# xmcd
#
# Track frame offsets:
#	150
#	14749
#	25895
#	40793
#	53922
#	63405
#	89666
#	99062
#	107634
#	116172
#	128156
#	139128
#	147102
#	162131
#	174395
#	186316
#
# Disc length: 2663 seconds
#
# Revision: 0
# Processed by: cddbd v1.5.1PL0 Copyright (c) Steve Scherf et al.
# Submitted via: EasyCDDAExtractor 8.2.1.1
#
DISCID=dc0a6510
DTITLE=Johnny Cash - Who's Gonna Cry
DYEAR=1900
DGENRE=
TTITLE0=Long Black Veil
TTITLE1=Flesh and Blood
TTITLE2=Just the Other Side of Nowhere
TTITLE3=If I Gave My Soul
TTITLE4=Understand Your Man
TTITLE5=Down There By The Train
TTITLE6=Two Timin' Woman
TTITLE7=The Caretaker
TTITLE8=Old Chunk of Coal
TTITLE9=I'm Going to Memphis
TTITLE10=Breaking Bread
TTITLE11=Waiting For a Train
TTITLE12=Casey's Last Ride
TTITLE13=No Earthly Good
TTITLE14=The Fourth Man in the Fire
TTITLE15=Dark As a Dungeon
EXTD=
EXTT0=
EXTT1=
EXTT2=
EXTT3=
EXTT4=
EXTT5=
EXTT6=
EXTT7=
EXTT8=
EXTT9=
EXTT10=
EXTT11=
EXTT12=
EXTT13=
EXTT14=
EXTT15=
PLAYORDER=
